<?xml version="1.0" encoding="UTF-8" standalone="no"?>
<!-- Created with Inkscape (http://www.inkscape.org/) -->

<svg
   width="50"
   height="50"
   viewBox="0 0 13.229166 13.229167"
   version="1.1"
   id="svg1"
   inkscape:export-filename="palette2.png"
   inkscape:export-xdpi="96"
   inkscape:export-ydpi="96"
   inkscape:version="1.4.2 (f4327f4, 2025-05-13)"
   sodipodi:docname="palette2.svg"
   xmlns:inkscape="http://www.inkscape.org/namespaces/inkscape"
   xmlns:sodipodi="http://sodipodi.sourceforge.net/DTD/sodipodi-0.dtd"
   xmlns="http://www.w3.org/2000/svg"
   xmlns:svg="http://www.w3.org/2000/svg">
  <sodipodi:namedview
     id="namedview1"
     pagecolor="#ffffff"
     bordercolor="#000000"
     borderopacity="0.25"
     inkscape:showpageshadow="2"
     inkscape:pageopacity="0.0"
     inkscape:pagecheckerboard="true"
     inkscape:deskcolor="#d1d1d1"
     inkscape:document-units="px"
     inkscape:antialias-rendering="false"
     inkscape:zoom="16"
     inkscape:cx="17.5625"
     inkscape:cy="22.09375"
     inkscape:window-width="1920"
     inkscape:window-height="991"
     inkscape:window-x="-9"
     inkscape:window-y="-9"
     inkscape:window-maximized="1"
     inkscape:current-layer="g10" />
  <defs
     id="defs1">
    <inkscape:path-effect
       effect="bend_path"
       id="path-effect4"
       is_visible="true"
       lpeversion="1"
       bendpath="m 1.139552,21.624243 h 9.814537"
       prop_scale="1"
       scale_y_rel="false"
       vertical="false"
       hide_knot="false" />
    <inkscape:path-effect
       effect="bend_path"
       id="path-effect3"
       is_visible="true"
       lpeversion="1"
       bendpath="m 1.239552,21.624243 h 9.814537"
       prop_scale="1"
       scale_y_rel="true"
       vertical="false"
       hide_knot="false" />
  </defs>
  <g
     inkscape:label="Layer 1"
     inkscape:groupmode="layer"
     id="layer1">
    <g
       id="g8"
       transform="rotate(56.668091,5.8905658,21.81652)">
      <g
         id="g9"
         transform="matrix(1.079527,0,0,1.079527,-11.996455,-10.819616)">
        <g
           id="g10"
           transform="translate(0.05403148,0.11527078)">
          <path
             style="fill:#000000;fill-opacity:1;stroke:none;stroke-width:2.64583"
             id="path1"
             sodipodi:type="arc"
             sodipodi:cx="8.1053638"
             sodipodi:cy="3.8891156"
             sodipodi:rx="4.9948254"
             sodipodi:ry="1.9090799"
             sodipodi:start="4.4196169"
             sodipodi:end="4.4290885"
             sodipodi:open="true"
             sodipodi:arc-type="arc"
             d="m 6.66382,2.0612718 a 4.9948254,1.9090799 0 0 1 0.04536,-0.00514"
             transform="matrix(0.5090083,-0.77395143,0.77395143,0.5090083,-3.3139608,23.686107)" />
          <path
             id="path11"
             style="fill:#ffffff;stroke-width:2.64583"
             d="M 1.5468783 18.203341 C 1.0619707 19.016014 0.82136642 20.086557 0.87797017 21.386138 C 0.88237017 21.486307 0.9643096 23.423032 2.0022634 25.146689 C 2.2077769 25.48797 2.7580906 26.339119 3.3475196 27.001423 C 3.8776856 27.597136 4.461843 27.788453 4.691422 27.853762 C 5.056578 27.957639 4.9053223 27.921322 5.1180163 27.961293 C 5.2120363 27.978963 5.7857755 27.801369 5.8451775 27.470681 C 5.9793695 26.723644 5.5429024 25.960148 5.4250494 25.678938 C 5.0713034 24.834861 5.087381 24.847715 4.910589 24.258873 C 4.888119 23.20395 5.0676211 22.675758 5.9907241 22.675758 C 6.4172621 22.675758 6.7425786 22.771968 6.9119366 22.940715 C 7.1520096 23.179924 7.2184254 23.293357 7.2944584 23.813933 C 7.4444034 24.840561 7.1818955 25.172713 7.0158145 25.519098 C 6.5840985 26.419503 7.5022427 26.878047 8.3989547 25.8518 C 9.0696707 25.084196 9.4152045 23.17769 9.4252169 22.893139 C 9.5078689 20.544202 9.2836287 18.843996 8.2926932 17.688515 C 7.473723 16.733555 6.6608999 16.307108 5.5449797 16.148978 C 4.2808324 15.969844 3.417186 16.540615 2.671897 17.025022 C 2.2166755 17.320896 1.8378228 17.715737 1.5468783 18.203341 z M 3.7786849 18.155135 C 3.9688751 17.873617 4.2909764 17.68841 4.6562896 17.68841 C 5.2407908 17.68841 5.7146982 18.162097 5.7146984 18.746599 C 5.7146988 19.3311 5.241011 19.805008 4.6565094 19.805008 C 4.0720077 19.805008 3.5981003 19.33132 3.5981006 18.746819 C 3.5981007 18.527631 3.6645706 18.324046 3.7786849 18.155135 z M 2.2668386 20.575002 A 0.9260416 0.9260416 45 0 1 3.0685241 20.112204 A 0.9260416 0.9260416 45 0 1 3.9945318 21.038054 A 0.9260416 0.9260416 45 0 1 3.0686822 21.964061 A 0.9260416 0.9260416 45 0 1 2.1426745 21.038212 A 0.9260416 0.9260416 45 0 1 2.2668386 20.575002 z M 2.3603089 23.293787 A 0.66145831 0.66145831 0 0 1 2.9331293 22.962931 A 0.66145831 0.66145831 0 0 1 3.5947348 23.624365 A 0.66145831 0.66145831 0 0 1 2.9329009 24.285708 A 0.66145831 0.66145831 0 0 1 2.2716954 23.624537 A 0.66145831 0.66145831 0 0 1 2.3603089 23.293787 z M 5.6161402 20.58739 A 0.73527575 0.73527575 0 0 1 6.6344894 20.377091 A 0.73527575 0.73527575 0 0 1 6.844788 21.395441 A 0.73527575 0.73527575 0 0 1 5.8264388 21.605739 A 0.73527575 0.73527575 0 0 1 5.6161402 20.58739 z " />
        </g>
      </g>
    </g>
  </g>
</svg>
