<?xml version="1.0" encoding="UTF-8" standalone="no"?>
<!-- Created with Inkscape (http://www.inkscape.org/) -->

<svg
   width="50"
   height="50"
   viewBox="0 0 13.229166 13.229167"
   version="1.1"
   id="svg1"
   inkscape:export-filename="cloud.png"
   inkscape:export-xdpi="96"
   inkscape:export-ydpi="96"
   inkscape:version="1.4.2 (f4327f4, 2025-05-13)"
   sodipodi:docname="cloud.svg"
   xmlns:inkscape="http://www.inkscape.org/namespaces/inkscape"
   xmlns:sodipodi="http://sodipodi.sourceforge.net/DTD/sodipodi-0.dtd"
   xmlns="http://www.w3.org/2000/svg"
   xmlns:svg="http://www.w3.org/2000/svg">
  <sodipodi:namedview
     id="namedview1"
     pagecolor="#ffffff"
     bordercolor="#000000"
     borderopacity="0.25"
     inkscape:showpageshadow="2"
     inkscape:pageopacity="0.0"
     inkscape:pagecheckerboard="true"
     inkscape:deskcolor="#d1d1d1"
     inkscape:document-units="px"
     inkscape:antialias-rendering="false"
     inkscape:zoom="7.7909517"
     inkscape:cx="19.381458"
     inkscape:cy="30.099019"
     inkscape:window-width="1920"
     inkscape:window-height="991"
     inkscape:window-x="-9"
     inkscape:window-y="-9"
     inkscape:window-maximized="1"
     inkscape:current-layer="layer1" />
  <defs
     id="defs1">
    <inkscape:path-effect
       effect="fillet_chamfer"
       id="path-effect18"
       is_visible="true"
       lpeversion="1"
       nodesatellites_param="F,0,0,1,0,8.2314197,0,1 @ F,0,0,1,0,10.789548,0,1 @ F,0,0,1,0,3.8988954,0,1 @ F,0,0,1,0,1.6436803,0,1 @ F,0,0,1,0,0,0,1"
       radius="0"
       unit="px"
       method="auto"
       mode="F"
       chamfer_steps="1"
       flexible="false"
       use_knot_distance="true"
       apply_no_radius="true"
       apply_with_radius="true"
       only_selected="false"
       hide_knots="false" />
    <inkscape:path-effect
       effect="fillet_chamfer"
       id="path-effect17"
       is_visible="true"
       lpeversion="1"
       nodesatellites_param="F,0,1,1,0,6.2826619,0,1 @ F,0,1,1,0,6.2826619,0,1 @ F,0,0,1,0,0,0,1 @ F,0,0,1,0,0,0,1"
       radius="0"
       unit="px"
       method="auto"
       mode="F"
       chamfer_steps="1"
       flexible="false"
       use_knot_distance="true"
       apply_no_radius="true"
       apply_with_radius="true"
       only_selected="false"
       hide_knots="false" />
    <inkscape:path-effect
       effect="fillet_chamfer"
       id="path-effect16"
       is_visible="true"
       lpeversion="1"
       nodesatellites_param="F,0,0,1,0,4.3284176,0,1 @ F,0,0,1,0,5.2638519,0,1 @ F,0,0,1,0,0,0,1 @ F,0,0,1,0,2.03282,0,1 @ F,0,0,1,0,0,0,1"
       radius="0"
       unit="px"
       method="auto"
       mode="F"
       chamfer_steps="1"
       flexible="false"
       use_knot_distance="true"
       apply_no_radius="true"
       apply_with_radius="true"
       only_selected="false"
       hide_knots="false" />
  </defs>
  <g
     inkscape:label="Layer 1"
     inkscape:groupmode="layer"
     id="layer1">
    <path
       id="path22"
       style="fill:#ffffff;stroke-width:1.06967"
       d="M 9.2686811,3.311089 C 7.6944125,3.4284041 6.5515735,4.3725903 6.2133025,5.6495917 6.0482391,5.5942904 6.0414158,5.589929 6.0568465,5.5938062 6.003849,5.5781294 5.8432562,5.529864 5.4188399,5.3995188 4.2508763,5.3152602 3.2859275,6.1543147 2.9482473,7.1032209 2.4064224,7.0269653 2.3253244,6.9792697 1.9652683,6.9371469 0.98752653,6.9371299 0.18454796,7.7087982 0.14486534,8.685734 l -0.004488,0.097464 0.0218011,0.3270184 c 0.0301904,0.4612754 0.4129932,0.82008 0.87525526,0.8201112 h 2.6103767 l 4.389101,-0.031419 -0.3161179,0.00385 h 4.2146915 c 0.387237,-5.8e-6 0.721344,-0.2712065 0.800873,-0.6501896 l 0.0065,-0.030779 C 12.931356,8.7179643 13.039395,8.1875693 13.063377,7.6501754 13.291843,5.6260507 11.95723,3.7554743 9.9688853,3.3130127 9.7274911,3.2945735 9.4935765,3.2943298 9.2686811,3.311089 Z m 0.2539201,0.9791318 a 2.3243315,2.3243315 0 0 1 2.3243958,2.324396 2.3243315,2.3243315 0 0 1 -2.3243958,2.3237549 2.3243315,2.3243315 0 0 1 -2.324396,-2.3237549 2.3243315,2.3243315 0 0 1 2.324396,-2.324396 z m 0,0.7149522 -0.518741,0.9060336 -0.5257944,0.9021863 0.8694844,-0.3257361 v 1.736404 H 9.6970111 V 6.4876568 L 10.566495,6.8133929 10.040059,5.9112066 Z" />
  </g>
</svg>
