<?xml version="1.0" encoding="UTF-8" standalone="no"?>
<!-- Created with Inkscape (http://www.inkscape.org/) -->

<svg
   width="50"
   height="50"
   viewBox="0 0 13.229166 13.229167"
   version="1.1"
   id="svg1"
   inkscape:export-filename="home.png"
   inkscape:export-xdpi="96"
   inkscape:export-ydpi="96"
   inkscape:version="1.4.2 (f4327f4, 2025-05-13)"
   sodipodi:docname="home.svg"
   xmlns:inkscape="http://www.inkscape.org/namespaces/inkscape"
   xmlns:sodipodi="http://sodipodi.sourceforge.net/DTD/sodipodi-0.dtd"
   xmlns="http://www.w3.org/2000/svg"
   xmlns:svg="http://www.w3.org/2000/svg">
  <sodipodi:namedview
     id="namedview1"
     pagecolor="#ffffff"
     bordercolor="#000000"
     borderopacity="0.25"
     inkscape:showpageshadow="2"
     inkscape:pageopacity="0.0"
     inkscape:pagecheckerboard="true"
     inkscape:deskcolor="#d1d1d1"
     inkscape:document-units="px"
     inkscape:antialias-rendering="false"
     inkscape:zoom="11.313709"
     inkscape:cx="22.450639"
     inkscape:cy="23.820659"
     inkscape:window-width="1920"
     inkscape:window-height="991"
     inkscape:window-x="-9"
     inkscape:window-y="-9"
     inkscape:window-maximized="1"
     inkscape:current-layer="layer1" />
  <defs
     id="defs1">
    <inkscape:path-effect
       effect="fillet_chamfer"
       id="path-effect2"
       is_visible="true"
       lpeversion="1"
       nodesatellites_param="F,0,0,1,0,0.2451317,0,1 @ F,0,0,1,0,0,0,1 @ F,0,0,1,0,0,0,1 @ F,0,0,1,0,1.1718031,0,1 @ F,0,0,1,0,0,0,1 @ F,0,0,1,0,1.1844237,0,1"
       radius="0"
       unit="px"
       method="auto"
       mode="F"
       chamfer_steps="1"
       flexible="false"
       use_knot_distance="true"
       apply_no_radius="true"
       apply_with_radius="true"
       only_selected="false"
       hide_knots="false" />
  </defs>
  <g
     inkscape:label="Layer 1"
     inkscape:groupmode="layer"
     id="layer1">
    <path
       id="path2"
       style="fill:#ffffff;stroke-width:0.416814"
       d="M 7.6868691,1.638901 V 2.4280001 L 7.520471,2.3220635 6.6145831,1.7453545 2.2381062,4.5312309 v 0.072864 A 0.67738754,0.67738754 0 0 0 3.2788695,5.1751192 L 6.6145831,3.0527682 7.520471,3.6289604 8.8449379,4.4723198 9.8717486,5.1255099 A 0.7229387,0.7229387 0 0 0 10.99106,4.5312309 L 9.011336,3.2708427 V 1.638901 Z m -1.0536824,2.0500041 -3.5904785,2.2148518 -0.00982,5.6818231 1.1591023,10e-4 0.412378,-0.0015 0.7927164,-10e-4 -0.010335,-3.0184201 1.3756266,-0.012402 1.0123413,0.012402 -0.00362,3.0241051 0.9399943,-0.0026 0.3984253,0.0031 H 10.196273 V 5.9037569 Z" />
  </g>
</svg>
