<?xml version="1.0" encoding="UTF-8" standalone="no"?>
<!-- Created with Inkscape (http://www.inkscape.org/) -->

<svg
   width="50"
   height="50"
   viewBox="0 0 13.229166 13.229167"
   version="1.1"
   id="svg1"
   inkscape:export-filename="move.png"
   inkscape:export-xdpi="96"
   inkscape:export-ydpi="96"
   inkscape:version="1.4.2 (f4327f4, 2025-05-13)"
   sodipodi:docname="move.svg"
   xmlns:inkscape="http://www.inkscape.org/namespaces/inkscape"
   xmlns:sodipodi="http://sodipodi.sourceforge.net/DTD/sodipodi-0.dtd"
   xmlns="http://www.w3.org/2000/svg"
   xmlns:svg="http://www.w3.org/2000/svg">
  <sodipodi:namedview
     id="namedview1"
     pagecolor="#ffffff"
     bordercolor="#000000"
     borderopacity="0.25"
     inkscape:showpageshadow="2"
     inkscape:pageopacity="0.0"
     inkscape:pagecheckerboard="true"
     inkscape:deskcolor="#d1d1d1"
     inkscape:document-units="mm"
     inkscape:zoom="11.01807"
     inkscape:cx="27.772559"
     inkscape:cy="25.911979"
     inkscape:window-width="1920"
     inkscape:window-height="991"
     inkscape:window-x="-9"
     inkscape:window-y="-9"
     inkscape:window-maximized="1"
     inkscape:current-layer="g1"
     inkscape:antialias-rendering="false" />
  <defs
     id="defs1" />
  <g
     inkscape:label="Layer 1"
     inkscape:groupmode="layer"
     id="layer1">
    <circle
       id="path1"
       style="fill:#000000;stroke:none;stroke-width:0.264583"
       cx="190.57179"
       cy="286.62613"
       r="0" />
    <g
       id="g2"
       transform="translate(-0.76843467,34.57956)">
      <g
         id="g8"
         transform="translate(0.768433,8.28785)" />
      <g
         id="g9"
         transform="matrix(0.92709169,0,0,0.92709169,23.803302,109.69893)"
         style="fill:none;stroke:#000000;stroke-opacity:1">
        <g
           id="g3"
           transform="matrix(0.06265205,0,0,0.06265205,-25.323691,-145.31535)"
           style="fill:none;stroke:#ffffff;stroke-width:4.35574;stroke-dasharray:none;stroke-opacity:1">
          <g
             id="g1"
             transform="translate(0,50.358059)"
             style="fill:none;stroke:#0f0f0f;stroke-width:4.35574;stroke-dasharray:none;stroke-opacity:1">
            <g
               id="g4"
               transform="matrix(1.637732,0,0,1.637732,-78.050774,68.052877)">
              <path
                 id="rect1"
                 style="fill:none;stroke:#ffffff;stroke-width:4.35574;stroke-dasharray:none;stroke-opacity:1"
                 d="m 121.46048,-153.57483 c -16.81566,0 -30.353187,13.53754 -30.353187,30.35319 v 39.958796 c 0,16.81566 13.537527,30.353189 30.353187,30.353189 h 0.76843 c 16.81565,0 30.35267,-13.537529 30.35267,-30.353189 v -39.958796 c 0,-16.81565 -13.53702,-30.35319 -30.35267,-30.35319 z" />
              <path
                 id="path2"
                 style="fill:none;stroke:#ffffff;stroke-width:4.35574;stroke-dasharray:none;stroke-opacity:1"
                 d="m 119.88486,-151.86032 v 11.3497 c -0.91269,0.62373 -1.50998,1.67285 -1.50998,2.86649 v 14.9841 c 0,1.19364 0.59729,2.24276 1.50998,2.86649 v 26.347233 h 3.91914 v -26.347233 c 0.91271,-0.62373 1.50999,-1.67285 1.50999,-2.86649 v -14.9841 c 0,-1.19365 -0.59728,-2.24276 -1.50999,-2.86649 v -11.00398 z" />
            </g>
          </g>
        </g>
      </g>
    </g>
  </g>
</svg>
