<?xml version="1.0" encoding="UTF-8" standalone="no"?>
<!-- Created with Inkscape (http://www.inkscape.org/) -->

<svg
   width="50"
   height="50"
   viewBox="0 0 13.229166 13.229167"
   version="1.1"
   id="svg1"
   inkscape:export-filename="paint brush.png"
   inkscape:export-xdpi="96"
   inkscape:export-ydpi="96"
   inkscape:version="1.4.2 (f4327f4, 2025-05-13)"
   sodipodi:docname="paint brush.svg"
   xmlns:inkscape="http://www.inkscape.org/namespaces/inkscape"
   xmlns:sodipodi="http://sodipodi.sourceforge.net/DTD/sodipodi-0.dtd"
   xmlns="http://www.w3.org/2000/svg"
   xmlns:svg="http://www.w3.org/2000/svg">
  <sodipodi:namedview
     id="namedview1"
     pagecolor="#ffffff"
     bordercolor="#000000"
     borderopacity="0.25"
     inkscape:showpageshadow="2"
     inkscape:pageopacity="0.0"
     inkscape:pagecheckerboard="true"
     inkscape:deskcolor="#d1d1d1"
     inkscape:document-units="px"
     inkscape:antialias-rendering="false"
     inkscape:zoom="5.5090348"
     inkscape:cx="-9.62056"
     inkscape:cy="31.49372"
     inkscape:window-width="1920"
     inkscape:window-height="991"
     inkscape:window-x="-9"
     inkscape:window-y="-9"
     inkscape:window-maximized="1"
     inkscape:current-layer="g3"
     showguides="false" />
  <defs
     id="defs1">
    <inkscape:path-effect
       effect="fillet_chamfer"
       id="path-effect1"
       is_visible="true"
       lpeversion="1"
       nodesatellites_param="F,0,1,1,0,0.60033958,0,1 @ F,0,0,1,0,0.60033958,0,1 @ F,0,0,1,0,0,0,1 @ F,0,0,1,0,0,0,1"
       radius="0"
       unit="px"
       method="auto"
       mode="F"
       chamfer_steps="1"
       flexible="false"
       use_knot_distance="true"
       apply_no_radius="true"
       apply_with_radius="true"
       only_selected="false"
       hide_knots="false" />
  </defs>
  <g
     inkscape:label="Layer 1"
     inkscape:groupmode="layer"
     id="layer1">
    <g
       id="g3"
       transform="matrix(1.0585916,0,0,1,-4.4626707,-15.21454)"
       style="fill:#000000">
      <g
         id="g10"
         transform="matrix(0.80583651,0.85305175,-0.76123455,0.80583651,19.406439,-5.4892007)"
         style="fill:#ffffff">
        <path
           id="path8"
           style="fill:#ffffff;stroke-width:6.01363"
           d="m 10.693996,26.098961 c -0.298307,-0.0081 -0.565348,0.06923 -0.7835006,0.208256 -0.3635904,0.231695 -0.590908,0.634586 -0.5970223,1.096057 -0.00596,0.450938 0.5073899,1.087674 0.7571399,1.789038 0.19552,0.549065 -0.4700797,0.751778 -0.084452,0.800985 0.878225,0.112079 1.918859,-1.466215 2.04247,-2.262394 0.123617,-0.796176 -0.294829,-1.507992 -1.173054,-1.620057 -0.05491,-0.0069 -0.108549,-0.01021 -0.161581,-0.01188 z m 0.0098,0.944645 c 0.271018,-5.96e-4 0.438505,0.198003 0.450574,0.45837 0.01287,0.277726 -0.229517,0.889167 -0.533074,0.918807 -0.02291,0.0022 -0.03604,5.15e-4 -0.04198,-0.0047 -2.43e-4,-2.49e-4 -0.0013,-0.0013 -0.0015,-0.0016 -1.88e-4,-2.78e-4 -8.14e-4,-0.0013 -9.76e-4,-0.0016 -0.01384,-0.03091 0.09971,-0.134075 0.01806,-0.2682 -0.13217,-0.217131 -0.348963,-0.392288 -0.377838,-0.54467 -0.02954,-0.155943 0.01932,-0.309514 0.125946,-0.415478 0.06398,-0.06358 0.148881,-0.110075 0.249939,-0.130225 0.01798,-0.0035 0.03619,-0.0064 0.05516,-0.0083 0.01897,-0.0019 0.03758,-0.0025 0.05565,-0.0026 z" />
        <path
           style="fill:#ffffff;stroke-width:5.55083"
           d="m 10.032864,16.069084 a 0.87992138,1.1391932 89.999999 0 0 -0.4460369,0.698185 l 4.968e-4,8.658733 2.1875801,-2.16e-4 6.18e-4,-8.658465 a 0.84545754,1.0945743 89.999999 0 0 -1.049066,-0.880339 0.87992138,1.1391932 89.999999 0 0 -0.693592,0.182102 z"
           id="path3" />
      </g>
    </g>
  </g>
</svg>
