<?xml version="1.0" encoding="UTF-8" standalone="no"?>
<!-- Created with Inkscape (http://www.inkscape.org/) -->

<svg
   width="50"
   height="50"
   viewBox="0 0 13.229166 13.229167"
   version="1.1"
   id="svg1"
   inkscape:export-filename="profile.png"
   inkscape:export-xdpi="96"
   inkscape:export-ydpi="96"
   inkscape:version="1.4.2 (f4327f4, 2025-05-13)"
   sodipodi:docname="profile.svg"
   xmlns:inkscape="http://www.inkscape.org/namespaces/inkscape"
   xmlns:sodipodi="http://sodipodi.sourceforge.net/DTD/sodipodi-0.dtd"
   xmlns="http://www.w3.org/2000/svg"
   xmlns:svg="http://www.w3.org/2000/svg">
  <sodipodi:namedview
     id="namedview1"
     pagecolor="#ffffff"
     bordercolor="#000000"
     borderopacity="0.25"
     inkscape:showpageshadow="2"
     inkscape:pageopacity="0.0"
     inkscape:pagecheckerboard="true"
     inkscape:deskcolor="#d1d1d1"
     inkscape:document-units="px"
     inkscape:antialias-rendering="false"
     inkscape:zoom="7.7909517"
     inkscape:cx="39.661393"
     inkscape:cy="38.955446"
     inkscape:window-width="1920"
     inkscape:window-height="991"
     inkscape:window-x="-9"
     inkscape:window-y="-9"
     inkscape:window-maximized="1"
     inkscape:current-layer="layer1" />
  <defs
     id="defs1">
    <inkscape:path-effect
       effect="fillet_chamfer"
       id="path-effect2"
       is_visible="true"
       lpeversion="1"
       nodesatellites_param="F,0,0,1,0,3.103458,0,1 @ F,0,0,1,0,0,0,1 @ F,0,0,1,0,0,0,1 @ F,0,0,1,0,3.2211638,0,1 @ F,0,0,1,0,0,0,1 @ F,0,0,1,0,0,0,1"
       radius="0"
       unit="px"
       method="auto"
       mode="F"
       chamfer_steps="1"
       flexible="false"
       use_knot_distance="true"
       apply_no_radius="true"
       apply_with_radius="true"
       only_selected="false"
       hide_knots="false" />
  </defs>
  <g
     inkscape:label="Layer 1"
     inkscape:groupmode="layer"
     id="layer1">
    <g
       id="g17"
       style="fill:#ffffff"
       transform="translate(4.8225911,-23.112466)">
      <path
         id="path4"
         style="fill:#ffffff;stroke:none;stroke-width:0.435;stroke-dasharray:none;stroke-opacity:1"
         d="M 3.8354304,27.16213 A 2.077175,2.077175 0 0 1 1.7582552,29.239304 2.077175,2.077175 0 0 1 -0.31891982,27.16213 2.077175,2.077175 0 0 1 1.7582552,25.084955 2.077175,2.077175 0 0 1 3.8354304,27.16213 Z" />
      <g
         id="path6"
         style="opacity:1;fill:#ffffff;stroke:none;stroke-width:0.3;stroke-dasharray:none;stroke-opacity:0.994845">
        <path
           style="baseline-shift:baseline;display:inline;overflow:visible;fill:#ffffff;stroke:none;stroke-width:0.3;stroke-dasharray:none;stroke-opacity:0.994845;enable-background:accumulate;stop-color:#000000;stop-opacity:1"
           d="M 3.510974,29.664286 A 2.077175,2.077175 0 0 1 1.7922158,30.575341 2.077175,2.077175 0 0 1 0.07345772,29.664286 4.652566,2.326283 0 0 0 -2.8602133,31.826428 4.652566,2.326283 0 0 0 1.7922158,34.152384 4.652566,2.326283 0 0 0 6.4446445,31.826428 4.652566,2.326283 0 0 0 3.510974,29.664286 Z"
           id="path15" />
        <path
           style="baseline-shift:baseline;display:inline;overflow:visible;fill:#ffffff;fill-opacity:0;stroke:none;stroke-width:0.3;stroke-dasharray:none;stroke-opacity:0.994845;enable-background:accumulate;stop-color:#000000;stop-opacity:1"
           d="m 0.171875,29.421875 -0.140625,0.0293 c -0.90988795,0.180876 -1.6715077,0.491209 -2.21875,0.894531 -0.5472423,0.403323 -0.8908402,0.915434 -0.890625,1.480469 2.136e-4,0.75984 0.6028921,1.399151 1.484375,1.839844 0.88148287,0.440692 2.07271945,0.703105 3.3867187,0.703125 1.3139993,-2e-5 2.505236,-0.262433 3.3867188,-0.703125 0.8814828,-0.440693 1.4822083,-1.080004 1.4824219,-1.839844 2.152e-4,-0.565035 -0.3433828,-1.077146 -0.890625,-1.480469 -0.5472422,-0.403322 -1.3088622,-0.713655 -2.21875,-0.894531 l -0.140625,-0.0293 -0.082031,0.121094 c -0.3461879,0.51031 -0.9204551,0.814393 -1.5371094,0.814453 -0.6166542,-6e-5 -1.19287455,-0.304143 -1.53906245,-0.814453 z M 0.03125,29.910156 c 0.43328132,0.537016 1.0650635,0.882745 1.7617187,0.882813 0.6966553,-6.8e-5 1.3264843,-0.345797 1.7597657,-0.882813 0.8139042,0.173851 1.5036665,0.448144 1.9609375,0.785156 0.4768211,0.351422 0.7130384,0.742733 0.7128906,1.13086 -1.475e-4,0.524776 -0.4398543,1.05005 -1.2421875,1.451172 -0.8023332,0.401122 -1.9361732,0.658184 -3.1914063,0.658203 -1.25523306,-1.9e-5 -2.39102603,-0.257081 -3.1933593,-0.658203 -0.8023333,-0.401122 -1.24204,-0.926396 -1.2421875,-1.451172 -1.478e-4,-0.388127 0.2360693,-0.779438 0.7128906,-1.13086 0.4572711,-0.337012 1.14703314,-0.611305 1.9609375,-0.785156 z"
           id="path16" />
      </g>
    </g>
    <path
       id="path17"
       style="fill:none;stroke:#ffffff;stroke-width:0.372798;stroke-dasharray:none"
       d="M 12.503735,6.6145827 A 5.8891524,5.8891524 0 0 1 6.6145833,12.503736 5.8891524,5.8891524 0 0 1 0.72543125,6.6145827 5.8891524,5.8891524 0 0 1 6.6145833,0.72543075 5.8891524,5.8891524 0 0 1 12.503735,6.6145827 Z" />
  </g>
</svg>
